<svg width="540" height="586" viewBox="0 0 540 586" fill="none" xmlns="http://www.w3.org/2000/svg">
<path fill-rule="evenodd" clip-rule="evenodd" d="M227 21.916C206.375 33.874 168.8 55.628 143.5 70.258L97.5 96.858V194.507V292.156L136.5 314.705C232.356 370.126 265.257 389 266.013 389C266.46 389 302.752 368.257 346.663 342.905C390.573 317.553 428.413 295.709 430.75 294.363L435 291.916V194.5V97.084L430.75 94.637C428.413 93.291 390.573 71.447 346.663 46.095C302.752 20.743 266.302 0.0389974 265.663 0.0869974C265.023 0.135997 247.625 9.95898 227 21.916ZM218.5 44.176C192.65 59.123 158.225 79.04 142 88.436L112.5 105.521V194.5V283.479L142 300.562C230.199 351.637 263.74 370.962 265.046 371.46C265.88 371.778 299.117 353.143 343 327.752L419.5 283.49V194.5V105.51L343.005 61.255C300.932 36.915 266.282 17 266.005 17C265.727 17 244.35 29.229 218.5 44.176ZM249.5 120.34L234.5 128.67L234.206 135.85C233.863 144.227 235.759 142.529 212.25 155.501L198 163.363V179.527C198 197.56 198.241 196.887 190.354 200.851C182.868 204.613 182.998 204.223 183.015 222.821C183.024 231.995 183.361 240.009 183.765 240.631C184.169 241.253 191.154 245.465 199.286 249.991C214.514 258.465 215.048 258.609 221.5 255.98C224.362 254.814 225.422 255.27 244.5 265.875C255.5 271.99 265.175 276.992 266 276.992C266.825 276.992 276.5 271.99 287.5 265.875C306.578 255.27 307.638 254.814 310.5 255.98C316.846 258.566 317.423 258.409 332.654 249.988C340.819 245.473 347.831 241.266 348.235 240.639C348.639 240.013 348.976 231.581 348.985 221.902L349 204.304L341.5 200.597L334 196.891V180.127V163.363L319.75 155.501C311.913 151.176 303.767 146.56 301.649 145.243L297.797 142.847L298.149 135.794C298.423 130.285 298.172 128.566 297 127.945C296.175 127.508 289.161 123.742 281.413 119.575C273.665 115.409 266.69 112.002 265.913 112.005C265.136 112.008 257.75 115.759 249.5 120.34ZM254.682 125.631C249.282 128.692 245.007 131.331 245.182 131.495C245.357 131.658 250.112 134.305 255.75 137.377L266 142.961L276.25 137.377C281.888 134.305 286.644 131.657 286.821 131.492C287.37 130.978 267.277 119.998 265.85 120.033C265.108 120.051 260.082 122.571 254.682 125.631ZM241.003 149.75L241.006 161.5L251.119 167C256.681 170.025 261.629 172.65 262.116 172.833C262.602 173.017 263 167.806 263 161.254V149.341L252.598 143.67C246.877 140.552 241.927 138 241.598 138C241.269 138 241.001 143.288 241.003 149.75ZM279.25 143.707L269 149.348V161.257C269 167.807 269.398 173.017 269.884 172.833C270.371 172.65 275.319 170.025 280.881 167L290.994 161.5L290.997 149.75C290.999 143.288 290.663 138.015 290.25 138.033C289.837 138.051 284.888 140.605 279.25 143.707ZM218.776 159.855L205.051 167.5L205.026 179.75C205.012 186.488 205.277 192 205.615 192C205.953 192 208.358 190.842 210.959 189.426L215.689 186.851L230.595 195.001C238.793 199.484 246.139 203.482 246.921 203.885C248.082 204.484 248.301 207.902 248.118 222.559C247.865 242.796 248.535 241.103 238.823 246.058C235.7 247.652 232.892 249.365 232.582 249.867C232.027 250.766 263.874 269 266 269C268.131 269 300.096 250.696 299.304 249.93C298.862 249.502 295.35 247.372 291.5 245.197L284.5 241.242V222.906V204.571L300.405 195.711L316.309 186.85L321.04 189.425C323.642 190.841 326.047 192 326.385 192C326.723 192 326.991 186.488 326.981 179.75L326.961 167.5L313.271 160C305.741 155.875 299.225 152.35 298.79 152.167C298.356 151.983 298 154.945 298 158.748V165.662L282.75 174.081C274.362 178.711 266.825 182.5 266 182.5C265.175 182.5 257.638 178.711 249.25 174.081L234 165.662V158.831C234 155.074 233.663 152.047 233.25 152.105C232.837 152.162 226.324 155.65 218.776 159.855ZM205.234 200.71C199.605 203.802 195 206.596 195 206.92C195 207.244 199.632 209.953 205.293 212.938L215.585 218.367L225.801 212.958C231.419 209.982 235.887 207.16 235.728 206.685C235.57 206.211 230.947 203.408 225.455 200.456L215.469 195.089L205.234 200.71ZM306.242 200.61C300.609 203.64 296 206.442 296 206.838C296 207.233 300.586 209.985 306.191 212.953L316.382 218.35L326.682 212.925C332.347 209.941 336.986 207.271 336.991 206.991C337.002 206.34 335.4 205.369 324.992 199.72L316.484 195.102L306.242 200.61ZM190.543 213.79C190.245 214.089 190 219.349 190 225.48V236.626L201 242.733L212 248.841L211.984 236.67L211.967 224.5L201.527 218.873C195.785 215.779 190.842 213.491 190.543 213.79ZM230 218.759L219.5 224.5L219.218 236.25C219.063 242.712 219.241 248 219.613 248C219.985 248 224.95 245.501 230.645 242.446L241 236.891V224.946C241 218.376 240.888 213.004 240.75 213.009C240.612 213.015 235.775 215.602 230 218.759ZM291 224.814V236.801L301.171 242.4C306.765 245.48 311.715 248 312.171 248C313.579 248 313.178 225.386 311.75 224.256C311.063 223.711 306.112 220.917 300.75 218.047L291 212.827V224.814ZM330.264 218.924L320.028 224.5L320.014 236.67L320 248.841L331 242.733L342 236.626V225.372C342 219.182 341.663 213.945 341.25 213.733C340.837 213.522 335.894 215.858 330.264 218.924ZM215 534.5V585H224.5H234V534.5V484H224.5H215V534.5ZM299 501.5C299 511.125 298.788 519 298.529 519C298.27 519 295.984 517.538 293.448 515.75C289.204 512.759 288.226 512.502 281.168 512.523C275.285 512.541 272.569 513.044 269.5 514.682C258.901 520.34 253.64 531.753 253.681 549C253.72 565.018 258.691 576.483 268.111 582.279C276.608 587.507 288.597 586.926 295.395 580.958C297.248 579.331 299.042 578 299.382 578C299.722 578 300 579.575 300 581.5V585H309H318V534.5V484H308.5H299V501.5ZM179.5 485.716C174.174 487.004 170.821 493.739 172.948 498.875C176.896 508.407 193 505.905 193 495.76C193 490.585 191.538 488.123 187.452 486.415C183.979 484.964 182.972 484.876 179.5 485.716ZM345.5 485.716C340.174 487.004 336.821 493.739 338.948 498.875C342.896 508.407 359 505.905 359 495.76C359 490.585 357.538 488.123 353.452 486.415C349.979 484.964 348.972 484.876 345.5 485.716ZM0 537.091V585.182L24.25 584.76C52.34 584.272 55.32 583.607 63.058 576.103C75.063 564.461 73.094 544.226 59.267 537.132L55.834 535.371L59.257 533.026C66.733 527.903 70.005 519.157 68.02 509.597C66.485 502.203 62.372 496.816 55.823 493.623C47.952 489.786 41.84 489 19.864 489H0V537.091ZM458.366 490.512C458.817 491.687 479.737 527.644 484.261 535.02C484.956 536.152 481.598 542.608 471.097 560.337C463.344 573.425 457 584.329 457 584.567C457 584.805 462.063 584.997 468.25 584.994L479.5 584.987L488.473 568.494C493.408 559.422 497.683 552.011 497.973 552.023C498.263 552.036 502.533 559.461 507.462 568.523L516.425 585H527.807H539.19L536.439 580.25C534.926 577.638 528.583 566.886 522.344 556.357C516.105 545.828 511 536.926 511 536.575C511 536.223 517.075 525.631 524.5 513.036C531.925 500.442 538 489.867 538 489.536C538 489.205 532.974 489.062 526.83 489.217L515.66 489.5L507.114 505.25C502.414 513.913 498.259 521 497.881 521C497.504 521 493.296 513.8 488.531 505L479.866 489H468.826C459.385 489 457.87 489.219 458.366 490.512ZM19 517V529H28.48C39.676 529 45.329 527.198 47.538 522.926C51.001 516.23 47.921 507.905 41.302 506.067C39.211 505.486 33.337 505.009 28.25 505.006L19 505V517ZM411.942 512.948C407.79 514.208 404.707 516.044 401.25 519.316L398 522.392V518.196V514H389H380V549.5V585H389.5H399V559.556C399 534.609 399.044 534.061 401.25 531.503C405.448 526.637 416.458 526.381 420.25 531.061C422.202 533.471 422.166 532.88 422.234 563.25L422.284 585H431.642H441V557.678C441 527.109 440.411 523.477 434.489 517.555C429.74 512.807 419.383 510.69 411.942 512.948ZM90 539.818C90 573.078 91.262 577.911 101.345 583.261C109.796 587.745 125.908 585.658 131.067 579.411C132.379 577.822 132.542 577.964 133 581.087L133.5 584.5L142.25 584.789L151 585.078V549.539V514H141.5H132V539.429C132 561.257 131.777 565.081 130.422 566.435C124.56 572.297 112.368 571.729 109.994 565.483C109.434 564.011 109 552.2 109 538.435V514H99.5H90V539.818ZM173 549.5V585H182.5H192V549.5V514H182.5H173V549.5ZM339 549.5V585H348.5H358V549.5V514H348.5H339V549.5ZM282.686 528.017C278.694 529.215 276.923 530.927 274.946 535.5C271.318 543.894 271.769 559.465 275.802 564.995C280.695 571.704 289.817 572.367 295.75 566.445L299 563.2V549V534.8L295.6 531.4C293.73 529.53 291.292 528 290.182 528C289.072 528 287.564 527.814 286.832 527.587C286.099 527.359 284.234 527.553 282.686 528.017ZM19 556V569H30.05C42.077 569 45.234 568.06 48.912 563.385C51.456 560.15 51.704 553.262 49.434 548.872C47.075 544.311 42.744 543 30.032 543H19V556Z" fill="#5DACBD"/>
</svg>
